<?xml version="1.0" encoding="UTF-8"?>
<svg xmlns="http://www.w3.org/2000/svg" viewBox="0 0 1000 1000">
  <defs>
    <style>
      .cls-1 {
        fill: #abd9ff;
      }

      .cls-2 {
        fill: #fff3a4;
      }

      .cls-3 {
        fill: #040000;
      }

      .cls-4, .cls-5 {
        fill: #fff;
      }

      .cls-5 {
        stroke: #040000;
        stroke-miterlimit: 10;
        stroke-width: 2.29px;
      }
    </style>
  </defs>
  <g id="_塗り" data-name="塗り">
    <g>
      <path class="cls-4" d="M820.58,322.62l-12.83-12.02s7.46-49.52-39.94-77.15c-30.23-17.62-77.21-12.4-91.41-2.3s-31.84-5.62-44.99,4.56c-13.15,10.18-12.84,33.03-8.26,38.84,4.58,5.81-39.94,6.63-22.86,27.23,17.08,20.6,131.98,118.47,152.21,110.61,20.23-7.86,65.41-64.25,61.08-74.44-4.32-10.19,6.99-15.33,6.99-15.33Z"/>
      <polyline class="cls-4" points="593.89 301.78 750.62 423.16 813.59 332.67 807.75 310.6"/>
      <path class="cls-1" d="M482.83,327.06c-47.6,17.13-214.69,96.93-235.03,104.47s-103.82,38.15-120.66,49.17c-16.84,11.03-37.85,23.69-31.01,40.47,6.84,16.78,24.29,47.68,79.44,88.67,62.28,46.28,116.49,77.46,136.39,97.57,24.52,24.78,45.49,54.23,50.81,65.55,2.97,6.32,13.75,15.19,67.95-9.99,54.2-25.18,258.87-140.52,258.87-140.52,0,0,120.1-44.82,128.57-73.57-7.23-7-22.46-17.39-22.46-17.39,0,0-18.98,23.98-31.76,15.95-12.78-8.03,3.88-35.84,3.88-35.84l-25.69-26.67s-27.55,17.29-33.28,4.37c-5.73-12.92,10.44-21.78,10.44-21.78l-11.78-10.12s-28.63,55.96-55.52,61.94c-26.89,5.97-65.17,3.72-76.89-30.2-11.71-33.92-5.45-53.73,0-76.33,5.45-22.6,20.41-46.3,20.41-46.3,0,0-45.68-31.29-72.12-36.85-26.44-5.55-40.55-2.61-40.55-2.61Z"/>
      <path class="cls-2" d="M680.66,497.93c25.25,27.48,76.9,73.82,106.43,81.54,22.43-16.11,37.39-26.84,32.59-30.91-4.79-4.07-23.98-17.07-23.98-17.07,0,0-18.33,23.78-31.08,14.06-12.75-9.73-2-24.26,3.19-33.94-14-15.98-25.69-26.67-25.69-26.67,0,0-22.45,15.65-31.85,5.25-9.39-10.4,11.19-24.05,11.19-24.05,0,0-10.42-3.15-15.33-11.19-7.14,17.33-19.85,38.32-25.46,42.98Z"/>
      <path class="cls-2" d="M579.32,409.17c-43.25-40.83-86.46-58.94-154.77-58.94,39.65-16.66,58.28-23.17,58.28-23.17,0,0,15.02-6.49,49.98,5.37,34.97,11.85,62.69,34.08,62.69,34.08,0,0-17.03,32.45-16.18,42.65Z"/>
      <path class="cls-3" d="M665.82,240.12c4.74,5.29,10.58,13.82,10.58,13.82l16.92-13.31-39.88-23.45-72.7,43.8,38.8,27.31,13.35-8.26c-1.18-7.17-.42-11.71-3.13-16.96-4.26-8.27,23.85-31.93,36.05-22.95Z"/>
      <path class="cls-2" d="M600.29,280.08c-20.94,10.64-23.66,18.38-23.66,18.38l26.79,24.17s17.97-1.93,27.99,2.67c7.48-4.8,2.82-3.14,2.82-3.14,0,0-18.84-12.43-25.11-20.36,21.93-3.62,29.55-10.19,29.55-10.19l-7.26-14.78-11.86,11.48-19.26-8.21Z"/>
      <path class="cls-2" d="M807.31,307.21c-3.81,28.16-20.47,45.73-24.55,49.67-4.08,3.94-24.41,19.79-28.24,31.73-3.83,11.93-3.94,19.39-3.94,19.39,0,0-38.7-24.98-48.14-39.25,9.96,26.46,11.94,33.96,11.94,33.96,0,0,21.32,23.78,27.74,26.84,16.93-13.17,44.36-32.33,59.74-23.49,30.56-22.61,55.09-41.54,53.29-45.79-1.8-4.25-31.37-46.53-47.83-53.07Z"/>
      <path class="cls-2" d="M807.75,412.93c-8.16-8.13-12.34-14.95-33.24-4.3-19.37,9.87-38.17,22.14-42.8,31.69,9.41,10.21,17.29,17.07,17.29,17.07l12.93,2.46s-5.48-22.75,8.62-34.37c14.1-11.62,31.14-9.24,31.14-9.24l6.06-3.32Z"/>
      <path class="cls-2" d="M852.45,443.48c-1.73,2.94-7.33,11.46-7.33,11.46,0,0,4.29,23.4-5.99,31.43s-16.18,13.79-34.72,11.55c1.07,9.52.43,11.79.43,11.79,0,0,17.37,17.73,22.78,17.8,5.41.06,56.79-32.78,56.87-46.72.07-12.21-32.04-37.31-32.04-37.31Z"/>
      <path class="cls-1" d="M699.53,364.48c-8.97-4.89-20.09-12.43-20.09-12.43l-1.98-29.42s-24.88,8.83-28.4,8.5c-3.52-.33-16.17-4.33-16.17-4.33,0,0-50.82-8.78-78.01,14.74,26.39,11.86,39.01,25.69,39.01,25.69,0,0-34.02,51.78-23.14,108.83,10.88,57.05,72.94,48.53,86.93,39.3,13.99-9.23,41.81-31.4,49.95-60.41,8.14-29.01,7.74-74.64-8.1-90.46Z"/>
      <path class="cls-4" d="M742.12,484.93c-22.94,8.82-27.71,12.81-33.28,4.37-5.58-8.45,15.04-35.85,53.09-29.44,1.36-24.18,1.63-42.11,39.76-43.61,17.32-7.05,25.62-8.83,27.95-5.51,2.33,3.32,2.31,12.56.17,18.98,16.82-1.84,22.19,1.67,23.06,4.52.87,2.85.27,14.24-5.9,20.71,3.55,20.56-5.78,30.18-11.57,34.35-5.79,4.17-9.79,10.21-28.68,7.44-4.8,27.37-11.67,34.28-18.68,41.52-7.01,7.23-16.49,11.7-23.42,7.28-6.93-4.42-6.67-14.37,5.11-33.94-11.55-14.71-27.61-26.67-27.61-26.67Z"/>
    </g>
    <path class="cls-3" d="M797.61,436.25v.34c-.02.47.08.91.3,1.32.14.43.37.79.71,1.1.31.33.68.57,1.1.71.41.21.85.31,1.32.3l.91-.12c.58-.16,1.09-.46,1.51-.88l.54-.69c.31-.54.47-1.11.47-1.73v-.34c.02-.47-.08-.91-.3-1.32-.14-.43-.37-.79-.71-1.1-.31-.33-.68-.57-1.1-.71-.41-.21-.85-.31-1.32-.3l-.91.12c-.58.16-1.09.46-1.51.88l-.54.69c-.31.54-.47,1.11-.47,1.73h0Z"/>
    <path class="cls-3" d="M816.25,451.98v.34c-.02.47.08.91.3,1.32.14.43.37.79.71,1.1.31.33.68.57,1.1.71.41.21.85.31,1.32.3l.91-.12c.58-.16,1.09-.46,1.51-.88l.54-.69c.31-.54.47-1.11.47-1.73v-.34c.02-.47-.08-.91-.3-1.32-.14-.43-.37-.79-.71-1.1-.31-.33-.68-.57-1.1-.71-.41-.21-.85-.31-1.32-.3l-.91.12c-.58.16-1.09.46-1.51.88l-.54.69c-.31.54-.47,1.11-.47,1.73h0Z"/>
    <path class="cls-3" d="M801.85,453.72c1.85,0,3.43-1.58,3.43-3.43s-1.57-3.43-3.43-3.43-3.43,1.58-3.43,3.43,1.57,3.43,3.43,3.43h0Z"/>
  </g>
  <g id="_線" data-name="線">
    <g>
      <path class="cls-3" d="M667.27,241.48c1.52,2.11,2.89,4.32,4.11,6.62.56,1.05,1.09,2.12,1.6,3.2.72,1.54,1,2.2,1.5,3.48,2.1,5.31,3.64,10.84,4.72,16.44.58,2.98.92,5.3,1.2,7.95.3,2.84.48,5.69.54,8.55.06,2.92,0,5.83-.22,8.74-.09,1.25-.21,2.5-.36,3.74-.04.34-.08.67-.13,1,.1-.73-.06.37-.06.42-.11.77-.24,1.53-.38,2.29-.51,2.83-1.19,5.63-2.09,8.37-.22.68-.46,1.35-.71,2.02-.11.28-.21.57-.32.85-.05.13-.54,1.29-.22.56-.54,1.25-1.14,2.47-1.79,3.67-.89,1.63-.4,3.74,1.23,4.69,1.57.92,3.8.4,4.69-1.23,5.37-9.83,7.16-21.39,7.23-32.48.08-11.99-1.87-24.23-6-35.5-2.17-5.93-4.92-11.71-8.63-16.85-1.08-1.5-2.99-2.23-4.69-1.23-1.48.87-2.32,3.18-1.23,4.69h0Z"/>
      <path class="cls-3" d="M651.43,240.07c1.48,1.28,2.8,2.73,4.01,4.26.36.45-.46-.63.14.18.13.17.25.34.38.51.31.43.62.87.92,1.31.6.89,1.18,1.8,1.74,2.72,1.03,1.71,1.98,3.47,2.87,5.27.44.88.85,1.77,1.26,2.66.17.38.34.76.5,1.14.15.36.19.46.02.04.1.24.2.47.29.71.68,1.66,2.31,3.01,4.22,2.4,1.6-.52,3.12-2.44,2.4-4.22-1.61-3.95-3.44-7.8-5.63-11.46-2.26-3.77-4.92-7.48-8.25-10.38-1.36-1.17-3.54-1.43-4.85,0-1.18,1.29-1.45,3.6,0,4.85h0Z"/>
      <path class="cls-3" d="M641.31,245.53c.73.59,1.4,1.24,2.04,1.92.35.38.69.76,1.02,1.16.14.17.28.34.42.52.09.11.17.21.25.32-.23-.3-.27-.35-.12-.15,1.35,1.79,2.58,3.66,3.73,5.59,1.06,1.79,2.05,3.63,2.95,5.51.21.43.41.86.6,1.3.09.2.18.41.27.61.31.71-.29-.74-.02-.04.25.66.51,1.31.72,1.98.53,1.71,2.42,2.98,4.22,2.4s2.97-2.39,2.4-4.22c-1.2-3.85-3.17-7.55-5.22-11-2.28-3.85-4.91-7.89-8.42-10.74-1.39-1.13-3.51-1.46-4.85,0-1.15,1.25-1.49,3.64,0,4.85h0Z"/>
      <path class="cls-3" d="M631.65,252.98c1.06,1.03,2.04,2.15,2.96,3.31.09.12.5.65.06.07.11.15.23.3.35.46.26.35.52.71.78,1.07.57.8,1.12,1.61,1.65,2.43,1.06,1.65,2.05,3.35,2.95,5.09.48.93.94,1.88,1.37,2.83.02.05.28.64.15.34-.15-.35.17.42.2.49.2.5.39,1,.57,1.51.61,1.68,2.36,3,4.22,2.4,1.66-.54,3.05-2.41,2.4-4.22-1.51-4.18-3.53-8.17-5.93-11.9-1.99-3.1-4.22-6.17-6.87-8.74-1.29-1.25-3.59-1.38-4.85,0s-1.38,3.52,0,4.85h0Z"/>
      <path class="cls-3" d="M624.87,268.12c4.33,6.3,7.19,12.89,8.88,20.32.88,3.84,1.3,7.05,1.44,10.98.07,1.87.05,3.74-.04,5.6-.05.93-.12,1.86-.21,2.79-.1.99-.19,1.77-.3,2.46-.65,4.29-1.77,8.49-3.32,12.54-.66,1.73.73,3.76,2.4,4.22,1.93.53,3.55-.66,4.22-2.4,5.79-15.1,5.5-32.58-.56-47.56-1.76-4.37-3.92-8.54-6.59-12.42-1.05-1.53-3.01-2.22-4.69-1.23-1.51.88-2.29,3.16-1.23,4.69h0Z"/>
      <path class="cls-3" d="M577.96,265.04c13.09,8.2,25.6,17.31,38.69,25.51,1.57.98,3.78.33,4.69-1.23.96-1.65.34-3.71-1.23-4.69-13.09-8.2-25.6-17.31-38.69-25.51-1.57-.98-3.78-.33-4.69,1.23-.96,1.65-.34,3.71,1.23,4.69h0Z"/>
      <path class="cls-3" d="M621.28,291.25c3.95-2.74,7.9-5.48,11.86-8.21.74-.52,1.33-1.15,1.58-2.05.23-.82.12-1.92-.35-2.64-.94-1.46-3.12-2.32-4.69-1.23-3.95,2.74-7.9,5.48-11.86,8.21-.74.52-1.33,1.15-1.58,2.05-.23.82-.12,1.92.35,2.64.94,1.46,3.12,2.32,4.69,1.23h0Z"/>
      <path class="cls-3" d="M681.49,254.72c2.48-1.9,4.84-3.92,7.2-5.96,1.11-.96,2.22-1.91,3.35-2.84.58-.48,1.17-.95,1.77-1.42.37-.29-.51.39-.14.11.15-.12.31-.23.46-.35.3-.23.61-.45.92-.67.74-.53,1.33-1.14,1.58-2.05.23-.82.12-1.92-.35-2.64-.93-1.44-3.13-2.35-4.69-1.23-2.57,1.84-4.99,3.86-7.38,5.92-1.1.95-2.2,1.9-3.31,2.85-.57.48-1.14.96-1.71,1.43-.27.22-.53.43-.8.65-.12.09-.24.19-.35.28-.62.49.61-.47,0,0-.74.57-1.32,1.11-1.58,2.05-.23.82-.12,1.92.35,2.64.9,1.4,3.17,2.4,4.69,1.23h0Z"/>
      <path class="cls-3" d="M581.05,264.83c18.88-11.83,38.15-23.02,57.53-34,5.52-3.13,11.05-6.24,16.59-9.35,1.61-.91,2.16-3.11,1.23-4.69s-3.07-2.14-4.69-1.23c-19.42,10.91-38.82,21.89-57.9,33.39-5.44,3.28-10.84,6.6-16.22,9.97-1.57.98-2.19,3.06-1.23,4.69s3.12,2.22,4.69,1.23h0Z"/>
      <path class="cls-3" d="M652.11,221.76c13.77,6.24,26.79,13.92,39.81,21.56,1.6.94,3.76.37,4.69-1.23.94-1.61.37-3.75-1.23-4.69-13.02-7.64-26.04-15.32-39.81-21.56-1.69-.76-3.69-.48-4.69,1.23-.86,1.47-.47,3.93,1.23,4.69h0Z"/>
      <path class="cls-3" d="M631.8,328.14c6.19,6.34,16.16,7.09,24.46,5.92s16.12-4.35,22.57-9.49c1.45-1.16,1.21-3.65,0-4.85-1.43-1.43-3.4-1.16-4.85,0-.32.25-.36.29-.12.1-.19.14-.38.28-.57.41-.34.24-.68.48-1.02.71-.71.47-1.43.91-2.17,1.33-.81.46-1.64.9-2.48,1.3-.73.35-1.53.71-1.98.89-3.38,1.34-6.85,2.29-10.44,2.87-1,.16-3.16.33-4.69.35-.84,0-1.68-.01-2.52-.07-.47-.03-.93-.08-1.4-.12-1.12-.12.73.14-.51-.07-1.83-.32-3.66-.72-5.38-1.42-1.35-.55-2.92-1.57-4.04-2.72-1.29-1.33-3.55-1.3-4.85,0s-1.3,3.52,0,4.85h0Z"/>
      <path class="cls-3" d="M630.54,324.53c-17.89,8.25-29.88,25.72-39.28,42.35-10.22,18.08-17.69,37.78-22.01,58.1-2.44,11.46-3.9,23.15-4.35,34.86-.07,1.85,1.63,3.43,3.43,3.43,1.92,0,3.36-1.57,3.43-3.43.78-20.04,4.65-39.82,11.4-58.79,3.31-9.32,7.32-18.33,12.02-27.05,4.5-8.37,9.71-16.89,15.52-24.16,6.48-8.11,13.89-15.04,23.32-19.38,1.68-.78,2.1-3.21,1.23-4.69-1.01-1.73-3.01-2.01-4.69-1.23h0Z"/>
      <path class="cls-3" d="M674.03,322.62c1.96,18.51,2.69,37.15,2.24,55.76-.46,19.09-2.14,37.98-5.77,56.6-1.94,9.95-4.44,19.8-7.74,29.39-.6,1.75.69,3.75,2.4,4.22,1.88.52,3.62-.64,4.22-2.4,6.08-17.68,9.49-36.2,11.56-54.75,2.14-19.24,2.72-38.65,2.08-57.99-.34-10.3-1.04-20.58-2.13-30.83-.19-1.84-1.44-3.43-3.43-3.43-1.7,0-3.63,1.58-3.43,3.43h0Z"/>
      <path class="cls-3" d="M696.57,366.21c5.4,7.34,8.94,15.17,11.19,23.89,1.12,4.35,1.87,8.67,2.28,12.82.44,4.51.57,9.05.42,13.58-.3,8.99-1.61,17.17-3.94,25.96-2.38,9-5.87,17.73-9.94,26.09-8.18,16.79-19.95,32.19-36.3,41.55-15.84,9.06-34.56,11.68-51.92,5.95-4.03-1.33-7.74-3.08-11.43-5.59-3.43-2.34-6.75-5.4-9.66-8.72-5.8-6.61-10.18-14.73-12.45-23.28-.27-1.01-.51-2.03-.72-3.05-.12-.57-.22-1.15-.32-1.72-.04-.26-.08-.51-.12-.77-.02-.1-.13-.9-.07-.43-.24-1.84-1.4-3.43-3.43-3.43-1.67,0-3.67,1.58-3.43,3.43,1.29,9.82,4.91,19.21,10.49,27.39,5.41,7.94,12.54,15.01,21.15,19.4,17.63,8.98,39.16,8.48,57.13.83,18.74-7.98,33.12-23.18,43.09-40.67,5.01-8.79,9.14-18.26,12.36-27.85,3-8.94,4.94-18.25,5.87-27.64,1.86-18.81-.79-38.76-10.43-55.27-1.19-2.04-2.5-4.02-3.9-5.92-1.1-1.49-2.98-2.24-4.69-1.23-1.47.86-2.34,3.19-1.23,4.69h0Z"/>
      <path class="cls-3" d="M676.42,333.33c6.5,5.85,14.25,9.96,22.68,12.26,8.14,2.22,16.67,2.85,25.07,2.82,1.85,0,3.43-1.57,3.43-3.43s-1.57-3.44-3.43-3.43c-7.94.03-15.31-.46-22.87-2.47-7.44-1.98-14.28-5.41-20.04-10.6-1.38-1.24-3.49-1.36-4.85,0-1.26,1.26-1.38,3.61,0,4.85h0Z"/>
      <path class="cls-3" d="M755.05,322.42c.95.68,1.82,1.69,2.55,3.01.17.31.34.63.49.96-.18-.41.26.73.29.86.11.34.2.69.28,1.04.03.13.22,1.4.17.87.08.78.09,1.56.03,2.34-.01.18-.03.36-.05.54.04-.32.03-.26-.04.16-.09.36-.16.72-.26,1.07-.27.95-.39,1.24-.73,1.91-.39.76-.84,1.51-1.36,2.18.28-.36-.34.38-.39.45-.33.37-.67.72-1.03,1.06-.66.62-.76.71-1.48,1.19-1.52,1.01-2.69,1.52-4.38,1.95-3.6.91-7.29.36-10.82-1.11-1.71-.71-3.77.77-4.22,2.4-.54,1.98.68,3.5,2.4,4.22,7.16,2.99,15.7,2.24,21.89-2.56,5.65-4.39,8.55-11.62,6.85-18.66-.97-4.02-3.39-7.41-6.73-9.8-1.51-1.08-3.82-.26-4.69,1.23-1.01,1.73-.28,3.61,1.23,4.69h0Z"/>
      <path class="cls-3" d="M774.19,242.72c9.78,6.28,17.56,15.29,22.87,25.82,5.34,10.59,7.79,22.47,7.16,34.47-.64,12.36-4.63,24.7-11.11,35.42-3.4,5.62-7.28,10.44-11.89,15.13-4.88,4.95-10.14,9.5-15.09,14.37-10.61,10.44-20.71,24.34-18.98,40.06.2,1.84,1.43,3.43,3.43,3.43,1.7,0,3.63-1.58,3.43-3.43-1.46-13.32,6.76-24.94,15.86-34.11,4.95-4.98,10.28-9.57,15.26-14.53,4.9-4.89,9.35-10.22,13.05-16.08,7.11-11.26,11.5-24.17,12.7-37.43,1.17-12.9-1.15-25.86-6.42-37.67-5.69-12.76-15.04-23.85-26.81-31.4-1.56-1-3.79-.32-4.69,1.23-.97,1.66-.33,3.69,1.23,4.69h0Z"/>
      <path class="cls-3" d="M682.23,234.12c9.9-5.71,21.47-7.71,32.68-8.65,5.17-.43,10.24-.5,15.42-.16,1.91.13,3.82.28,5.72.53-.78-.1.69.11.91.14.54.08,1.08.17,1.62.27,1.15.2,2.29.42,3.43.67,2.76.59,5.5,1.32,8.17,2.25.63.22,1.25.45,1.87.69.11.04.81.33.33.13.32.13.64.28.95.42,1.19.55,2.35,1.18,3.46,1.89,1.56,1,3.79.32,4.69-1.23.97-1.66.33-3.69-1.23-4.69-4.29-2.77-9.36-4.38-14.29-5.58-4.48-1.09-9.08-1.84-13.68-2.2-11.35-.9-22.88-.04-34.01,2.34-6.8,1.46-13.46,3.78-19.51,7.26-1.6.92-2.16,3.1-1.23,4.69.94,1.61,3.08,2.16,4.69,1.23h0Z"/>
      <path class="cls-3" d="M684.44,261.43c1.04-.55,2.1-1.05,3.17-1.54.34-.15.27-.12-.22.09.13-.06.27-.11.4-.17.2-.08.41-.16.61-.24.55-.21,1.1-.41,1.66-.59,1.07-.35,2.16-.65,3.27-.9.61-.14,1.23-.26,1.85-.36.31-.05.65-.15.96-.15-1,0,.1,0,.32-.03.94-.1,1.73-.31,2.43-1,.6-.6,1.04-1.57,1-2.43-.08-1.69-1.52-3.64-3.43-3.43-2.8.31-5.55.81-8.23,1.69-2.51.83-4.93,1.92-7.27,3.14-1.59.84-2.2,3.19-1.23,4.69,1.04,1.62,2.99,2.12,4.69,1.23h0Z"/>
      <path class="cls-3" d="M704.34,279.24c1.78-1.53,3.63-2.98,5.41-4.51.33-.31.57-.68.71-1.1.21-.41.31-.85.3-1.32,0-.84-.37-1.85-1-2.43s-1.51-1.05-2.43-1l-.91.12c-.58.16-1.09.46-1.51.88-1.78,1.53-3.63,2.98-5.41,4.51-.33.31-.57.68-.71,1.1-.21.41-.31.85-.3,1.32,0,.84.37,1.85,1,2.43s1.51,1.05,2.43,1l.91-.12c.58-.16,1.09-.46,1.51-.88h0Z"/>
      <path class="cls-3" d="M723.06,294.02c1.75-1.85,3.51-3.71,5.26-5.56.62-.65,1-1.52,1-2.43,0-.84-.37-1.85-1-2.43s-1.51-1.05-2.43-1-1.79.34-2.43,1c-1.75,1.85-3.51,3.71-5.26,5.56-.62.65-1,1.52-1,2.43,0,.84.37,1.85,1,2.43s1.51,1.05,2.43,1c.9-.04,1.79-.34,2.43-1h0Z"/>
      <path class="cls-3" d="M728.4,242.58c-6.26,8.11-8.6,18.6-7.05,28.65.28,1.83,2.58,2.85,4.22,2.4,1.96-.54,2.68-2.38,2.4-4.22,0-.03-.09-.61-.05-.29-.04-.27-.06-.54-.09-.81-.05-.54-.09-1.08-.12-1.62-.05-1.08-.05-2.16,0-3.25.11-2.17.38-3.87.97-6.1,1.09-4.14,2.93-7.81,5.63-11.3,1.13-1.47.22-3.84-1.23-4.69-1.77-1.04-3.56-.24-4.69,1.23h0Z"/>
      <path class="cls-3" d="M738.57,260.2c-1.14,16.61,2.77,33.44,10.97,47.91.91,1.61,3.11,2.16,4.69,1.23,1.62-.95,2.15-3.08,1.23-4.69-7.66-13.53-11.09-28.98-10.04-44.45.13-1.85-1.67-3.43-3.43-3.43-1.96,0-3.3,1.57-3.43,3.43h0Z"/>
      <path class="cls-3" d="M765.73,459.09c-.58-1.76-1.11-3.54-1.44-5.36-.05-.27-.09-.54-.13-.8-.08-.56.05.5,0-.08-.04-.46-.09-.92-.12-1.38-.07-1.16-.06-2.32,0-3.49.2-4.29,1.43-8.63,3.61-12.69,1.05-1.95,2.31-3.96,3.67-5.57.64-.76,1.32-1.49,2.04-2.17.36-.34.72-.67,1.1-.98.19-.16.37-.31.57-.47.88-.71-.46.29.47-.35,3.58-2.48,6.7-3.87,10.88-4.89,4.62-1.14,9.11-1.4,14.14-1.12,1.85.1,3.43-1.65,3.43-3.43,0-1.94-1.57-3.33-3.43-3.43-9.43-.51-19.58,1-27.58,6.33-8.64,5.75-14.5,16.03-15.57,26.31-.55,5.3.11,10.36,1.76,15.41.58,1.76,2.37,2.9,4.22,2.4,1.73-.47,2.97-2.45,2.4-4.22h0Z"/>
      <path class="cls-3" d="M803.42,419.21c3.14-2.06,6.46-3.64,9.96-4.85,3.53-1.22,6.81-2.43,10.22-1.49.17.04.33.1.5.16-.29-.13-.25-.1.12.08,0,0,.9.56.45.23.32.24.61.54.88.83.12.13.24.26.35.39-.18-.23-.15-.18.09.16.69,1.15,1.19,2.48,1.31,3.49.41,3.68.2,7.18-.79,10.6-.52,1.78.63,3.73,2.4,4.22s3.7-.61,4.22-2.4c2.26-7.8,2.43-20.17-6.46-23.92-4.58-1.93-9.34-.83-13.86.62-4.49,1.44-8.89,3.37-12.84,5.96-1.55,1.01-2.2,3.04-1.23,4.69.9,1.54,3.14,2.25,4.69,1.23h0Z"/>
      <path class="cls-3" d="M829.89,433.91c4.32.31,8.64-.12,12.96-.04,1.9.04,3.43.05,5.12.58.19.06.38.13.57.2-.38-.16-.41-.16-.07,0,.21.14.44.27.65.4-.75-.48.05.08.22.25.2.2.36.44.56.64.15.19.1.13-.15-.19.13.17.25.34.36.52.2.37.23.43.09.17.08.41.11.47.08.15.06.36.03.75,0,1.11-.03.43-.04.5-.03.22-.05.25-.1.5-.17.75-.41,1.6-1.12,3.32-1.66,4.55-1.51,3.4-3.36,6.77-5.74,9.28-1.27,1.35-1.34,3.52,0,4.85,1.29,1.29,3.57,1.35,4.85,0,2.46-2.59,4.4-5.65,5.97-8.85s3.25-6.79,3.61-10.43c.34-3.4-1.35-6.5-3.99-8.54-2.84-2.19-6.6-2.45-10.06-2.53-4.4-.1-8.79.35-13.18.03-1.85-.13-3.43,1.67-3.43,3.43,0,1.97,1.58,3.3,3.43,3.43h0Z"/>
      <path class="cls-3" d="M841.88,455.81c2.95,8.82,1.85,17.82-3.31,25.62-4.7,7.11-11.83,11.36-20.23,12.75-.24.04-.48.08-.72.11.57-.08-.54.05-.53.05-.6.06-1.21.1-1.81.13-1.2.05-2.41.04-3.61-.05-.24-.02-.48-.04-.72-.06-.11-.01-1.1-.13-.52-.05-.53-.07-1.06-.17-1.59-.28-1.23-.25-2.43-.59-3.62-1-1.75-.61-3.75.69-4.22,2.4-.52,1.89.64,3.61,2.4,4.22,9.34,3.23,20.01,1.72,28.57-3,9.02-4.97,15.76-14.21,17.74-24.32,1.2-6.13.78-12.43-1.2-18.35-.59-1.76-2.37-2.91-4.22-2.4-1.72.47-2.99,2.46-2.4,4.22h0Z"/>
      <path class="cls-3" d="M800.97,496.74c-.07,7.79-1.58,15.1-4.53,22.55-1.17,2.97-3.2,6.72-5.2,9.71-.52.77-1.05,1.52-1.61,2.27-.28.37-.11.15-.48.61-.34.43-.69.85-1.05,1.27-1.18,1.37-2.43,2.67-3.77,3.89-2.37,2.17-4.71,3.92-7.86,5.4-.19.09-.37.17-.56.26-.49.22.46-.17-.06.02-.35.13-.7.27-1.06.39-.84.28-1.7.52-2.57.69-.22.04-.44.08-.66.12.07-.01.48-.05.07,0s-.79.07-1.19.09c-.46.02-.91.01-1.37-.02-.23-.01-.46-.03-.69-.06.38.05.09.01-.12-.04-.46-.11-.91-.21-1.36-.35-.17-.05-.34-.11-.51-.18-.55-.21.36.18-.18-.08-.86-.42-1.63-.9-2.19-1.4-.31-.27-.61-.56-.86-.88.34.42-.34-.61-.4-.71,0,0-.25-.51-.11-.2.15.34-.11-.31-.13-.38-.15-.44-.26-.88-.35-1.33-.02-.08-.12-.79-.07-.41s-.02-.34-.02-.42c-.02-.42-.03-.83-.02-1.25.03-1.25.04-1.21.27-2.29.4-1.88,1.08-3.72,1.71-5.53,1.32-3.76,2.61-6.79,4.76-10.43s4.72-6.96,7.48-10.24c1.19-1.42,1.39-3.46,0-4.85-1.22-1.22-3.65-1.43-4.85,0-2.87,3.42-5.67,6.95-8.02,10.75-2.11,3.42-3.79,7.07-5.22,10.83-1.52,4.02-3.13,8.28-2.99,12.65.16,4.92,2.45,9.09,6.74,11.59,7.44,4.33,16.51,1.28,22.97-3.41,6.87-5,12.26-11.81,16-19.41,4.46-9.07,6.82-19.1,6.91-29.21.02-1.85-1.59-3.43-3.43-3.43s-3.41,1.57-3.43,3.43h0Z"/>
      <path class="cls-3" d="M762.84,456.55c-8.65-2.19-17.94-2.55-26.62-.3-4.36,1.13-8.6,2.84-12.63,4.85-3.71,1.85-7.21,4.01-10.28,6.82-5.64,5.16-11.35,13.67-8.15,21.55,1.61,3.98,4.82,6.98,9.16,7.67,4.16.66,8.21-.45,12.12-1.82,8.9-3.11,16.9-8.07,26.1-10.23,1.8-.42,2.87-2.48,2.4-4.22-.51-1.85-2.41-2.82-4.22-2.4-7.49,1.76-14.32,5.36-21.34,8.38-3.15,1.36-6.66,2.63-10.12,3.41-.13.03-1.25.24-.73.17-.36.05-.73.07-1.1.08s-.74,0-1.1-.01c-.18,0-.37-.02-.55-.04-.25-.02-.24-.02.01,0l-.36-.07c-.35-.09-.69-.18-1.04-.29-.51-.16-.03.06-.48-.22-.65-.4-.86-.49-1.49-1.26.24.29-.25-.39-.31-.49-.19-.31-.37-.64-.52-.97.17.37-.2-.61-.24-.74-.12-.41-.23-.84-.28-1.26.06.45,0-.42,0-.55,0-.18,0-.36.01-.55,0-.08.1-.81.04-.44.06-.31.43-1.45.65-2.05.99-2.72,3.17-5.61,5.39-7.82,4.91-4.9,11.96-8.19,18.74-10.27,8.16-2.5,16.82-2.41,25.13-.3,1.8.45,3.72-.58,4.22-2.4s-.59-3.76-2.4-4.22h0Z"/>
      <path class="cls-3" d="M741.35,489.34c.53.37,1.05.74,1.57,1.13.12.09.25.19.37.28-.23-.18-.25-.2-.06-.05.26.2.51.41.77.61,1.13.92,2.23,1.87,3.3,2.84,2.3,2.07,4.51,4.25,6.65,6.48,2.13,2.22,4.21,4.5,6.21,6.85.9,1.05,1.78,2.11,2.64,3.18.2.25.4.5.6.76.11.13.6.76.23.29.41.53.82,1.08,1.22,1.62,1.09,1.49,2.98,2.23,4.69,1.23,1.47-.86,2.33-3.19,1.23-4.69-3.64-4.97-7.71-9.64-11.97-14.08-4.3-4.48-8.86-8.84-13.99-12.37-1.53-1.05-3.81-.29-4.69,1.23-.99,1.7-.3,3.64,1.23,4.69h0Z"/>
      <path class="cls-3" d="M721,464.55c-1.37-.6-2.72-1.26-3.98-2.07-.26-.17-.51-.34-.76-.52-.12-.09-.25-.21-.38-.28.15.08.74.59.28.21-.43-.35-.84-.72-1.24-1.11-1.82-1.79-3.33-3.88-5-5.8-1.18-1.36-3.66-1.3-4.85,0-1.33,1.45-1.26,3.4,0,4.85,1.69,1.96,3.23,4.08,5.09,5.89,2.13,2.07,4.68,3.57,7.39,4.76.88.38,1.68.61,2.64.35.8-.22,1.66-.83,2.05-1.58.42-.8.63-1.76.35-2.64-.26-.79-.78-1.7-1.58-2.05h0Z"/>
      <path class="cls-3" d="M483.63,330.29c16.13-1.92,31.86.13,47.24,5.11,14.7,4.76,28.45,11.94,41.68,20.09,7.22,4.44,14.25,9.17,21.22,13.99,1.52,1.06,3.81.28,4.69-1.23,1-1.7.3-3.64-1.23-4.69-12.73-8.81-25.71-17.32-39.54-24.32-14.35-7.26-29.65-13.01-45.63-15.31-9.44-1.36-18.96-1.62-28.44-.5-1.84.22-3.43,1.42-3.43,3.43,0,1.68,1.58,3.65,3.43,3.43h0Z"/>
      <path class="cls-3" d="M792.6,456.51l.12-.02-.91.12c2.42-.32,4.87-.47,7.31-.53.89-.02,1.79-.37,2.43-1,.6-.6,1.04-1.57,1-2.43s-.33-1.81-1-2.43-1.5-1.03-2.43-1c-2.79.06-5.57.29-8.34.67-.79.11-1.67.93-2.05,1.58-.43.74-.61,1.82-.35,2.64s.78,1.63,1.58,2.05l.82.35c.61.16,1.22.16,1.82,0h0Z"/>
      <path class="cls-3" d="M796.03,453.02v7.99c0,.88.38,1.8,1,2.43s1.57,1.04,2.43,1c1.86-.08,3.43-1.51,3.43-3.43v-7.99c0-.88-.38-1.8-1-2.43s-1.57-1.04-2.43-1c-1.86.08-3.43,1.51-3.43,3.43h0Z"/>
      <path class="cls-3" d="M556.61,343.65c8.94-5.52,18.17-9.93,28.26-12.74,4.75-1.32,9.8-2.31,14.36-2.79,5.04-.53,10.12-.65,15.18-.39,6.04.31,11.64,1.12,17.57,2.38,1.81.39,3.71-.54,4.22-2.4.47-1.71-.58-3.83-2.4-4.22-10.82-2.3-21.94-3.36-32.98-2.39-10.7.94-21.02,3.66-30.89,7.85-5.82,2.47-11.41,5.45-16.79,8.77-1.58.97-2.18,3.07-1.23,4.69.92,1.57,3.11,2.21,4.69,1.23h0Z"/>
      <path class="cls-3" d="M610.51,303.37c9.65.21,19.29-2.65,27.02-8.48,1.48-1.11,2.24-2.96,1.23-4.69-.85-1.46-3.21-2.35-4.69-1.23-6.95,5.24-14.97,7.73-23.56,7.54-1.85-.04-3.43,1.61-3.43,3.43s1.57,3.39,3.43,3.43h0Z"/>
      <path class="cls-3" d="M702.07,363.21c2.37-2.21,4.38-4.83,6.48-7.29,1.18-1.38,2.37-2.76,3.61-4.08.53-.56,1.07-1.12,1.63-1.65.25-.23.49-.46.75-.68.13-.11.27-.22.4-.34.42-.35-.81.6-.22.17,1.45-1.05,2.3-3.04,1.23-4.69-.93-1.44-3.14-2.35-4.69-1.23-5.59,4.02-9.06,10.28-14.05,14.93-1.32,1.23-1.33,3.63,0,4.85,1.41,1.29,3.45,1.31,4.85,0h0Z"/>
      <path class="cls-3" d="M677.02,354.47c6.15,5.39,13.51,10.38,21.96,10.67,1.8.06,3.51-1.62,3.43-3.43-.09-1.91-1.51-3.37-3.43-3.43-.43-.01-.86-.05-1.3-.08-.41-.05-.43-.05-.06,0-.22-.03-.43-.07-.64-.11-.87-.16-1.72-.39-2.56-.66-1.76-.56-2.52-.92-4.3-1.9-1.56-.86-3.06-1.83-4.5-2.88-.37-.27-.74-.54-1.1-.82.43.33-.55-.44-.64-.51-.68-.56-1.36-1.13-2.02-1.71-1.35-1.18-3.54-1.43-4.85,0-1.19,1.3-1.44,3.59,0,4.85h0Z"/>
      <path class="cls-3" d="M738.4,358.68c-3.4,4.77-5.85,10.26-7.62,15.83-1.75,5.5-2.9,11.49-2.38,17.27.17,1.85,1.46,3.43,3.43,3.43,1.73,0,3.6-1.57,3.43-3.43-.11-1.26-.15-2.52-.1-3.79.02-.66.07-1.33.13-1.99.03-.31.06-.61.09-.92.12-1.19-.11.62.08-.58.43-2.77,1.08-5.5,1.93-8.17,1.6-5.05,3.75-9.73,6.93-14.19,1.08-1.51.27-3.82-1.23-4.69-1.72-1.01-3.62-.28-4.69,1.23h0Z"/>
      <path class="cls-3" d="M718.91,356.2c-2.58,4.34-4.19,9.39-4.85,14.39-.11.81.46,1.88,1,2.43.6.6,1.57,1.04,2.43,1s1.81-.33,2.43-1c.66-.72.88-1.47,1-2.43,0,.05-.15,1.04-.06.49.01-.09.03-.17.04-.26.03-.21.07-.41.11-.62.09-.46.19-.92.3-1.38.25-1.07.55-2.12.89-3.17.17-.54.36-1.07.55-1.6.11-.29.21-.57.32-.85.06-.16.13-.31.19-.47.16-.41-.29.66-.11.25.51-1.14,1.04-2.25,1.68-3.32.92-1.54.4-3.83-1.23-4.69-1.66-.88-3.71-.42-4.69,1.23h0Z"/>
      <path class="cls-3" d="M627.02,316.38c2.15-.54,4.25-1.29,6.31-2.1,2.48-.98,5.01-2,7.08-3.73.64-.53,1-1.63,1-2.43,0-.84-.37-1.85-1-2.43-1.47-1.35-3.38-1.23-4.85,0-.24.2-.5.25.4-.3-.09.05-.17.12-.26.18-.17.12-.35.23-.54.34-.44.26-.89.5-1.35.72-.52.26-1.05.49-1.58.72s.18-.07.31-.13c-.14.07-.3.12-.44.18-.3.12-.6.24-.9.36-1.96.76-3.96,1.47-6.01,1.98-1.74.44-2.96,2.48-2.4,4.22s2.35,2.87,4.22,2.4h0Z"/>
      <path class="cls-3" d="M481.92,323.75c-41.16,14.13-80.68,32.9-119.98,51.47-41.59,19.66-82.94,40.04-125.58,57.37-38.85,15.79-80.41,26.25-116.41,48.38-7.8,4.8-16.22,10.14-21.26,17.98-5.84,9.08-7.99,20.5-4.07,30.83,1.96,5.16,5.32,10.04,8.3,14.65,3.03,4.69,6.3,9.23,9.74,13.63,6.77,8.66,14.29,16.69,22.36,24.15,15.97,14.78,33.86,27.31,51.86,39.46,18.66,12.6,37.08,25.42,55.4,38.5,34.78,24.84,73.86,47.85,98.77,83.58,5.2,7.46,9.18,15.6,13.86,23.37,4.49,7.45,9.15,15.57,18.57,16.76,5.43.68,10.9-.64,16.11-2.07,6.29-1.73,12.48-3.78,18.6-6.02,12.4-4.54,24.51-9.86,36.52-15.33,23.45-10.69,46.52-22.03,69-34.65,20.44-11.47,40.41-23.74,60.36-36.03,41.3-25.44,83-50.09,127.87-68.8,22.65-9.45,45.55-18.3,67.33-29.69,10.38-5.43,20.5-11.38,30.03-18.22,4.57-3.28,9.02-6.76,13.25-10.46,3.77-3.29,8.94-7.16,9.1-12.66.15-5.21-4.27-8.01-8.14-10.51-5.2-3.36-10.49-6.55-15.37-10.38-3.44-2.7-8.32,2.13-4.85,4.85,4.54,3.56,9.31,6.72,14.18,9.81,1.94,1.23,5.35,2.7,6.69,4.65,1.85,2.69-2.14,5.49-3.95,7.14-8.31,7.61-17.51,14.18-27.11,20.08-20.11,12.36-41.83,21.9-63.62,30.87-22.69,9.34-45.2,18.82-67.04,30.04-20.19,10.37-39.83,21.75-59.24,33.52-39.59,24-78.57,48.95-120.12,69.53-22.9,11.34-46.32,22.5-70.46,30.97-5.85,2.05-11.78,3.97-17.8,5.46-4.89,1.21-11.35,2.56-15.71-.85-2.87-2.25-4.9-6-6.8-9.03-2.18-3.47-4.21-7.03-6.17-10.62-20.11-36.68-53.64-61.56-87.3-85.06-17.24-12.03-34.15-24.56-51.48-36.45-17.95-12.31-36.35-24.01-53.79-37.04-16.84-12.58-32.71-26.68-45.7-43.28-3.43-4.38-6.64-8.95-9.63-13.65-2.76-4.33-6.23-9.06-7.65-14.03-2.94-10.26.59-21.89,8.62-28.92,15.02-13.15,34.57-21.69,52.81-29.29s37.68-13.88,56.52-20.88c40.43-15.03,79.44-33.74,118.38-52.21,39.85-18.9,79.6-38.3,120.63-54.56,8.67-3.44,17.4-6.7,26.21-9.73,4.15-1.43,2.37-8.06-1.82-6.62h0Z"/>
      <path class="cls-3" d="M680,500.04c10.65,12.84,22.58,24.64,35.06,35.69,13.44,11.91,27.65,23.06,42.72,32.84,7.53,4.89,15.3,9.43,23.4,13.3,1.67.8,3.7.46,4.69-1.23.88-1.5.45-3.89-1.23-4.69-14.95-7.13-28.84-16.44-42.03-26.41-13.82-10.45-27.26-22.2-39.64-34.59-6.32-6.32-12.41-12.88-18.12-19.76-1.18-1.43-3.63-1.22-4.85,0-1.41,1.41-1.19,3.42,0,4.85h0Z"/>
      <path class="cls-3" d="M422.74,355.19c25.3-2.11,50.38.45,74.63,7.74,20.1,6.04,39.06,15.06,56.29,27.5,1,.72,1.99,1.45,2.97,2.19.24.18.48.37.72.55.31.24.32.25.02.02.12.09.24.18.36.28.51.4,1.02.8,1.52,1.2,1.88,1.51,3.73,3.06,5.54,4.66,3.4,3.01,6.66,6.18,9.71,9.54,1.25,1.37,3.59,1.27,4.85,0,1.37-1.37,1.25-3.48,0-4.85-12.52-13.79-28.25-24.76-44.71-33.32-20.78-10.81-43.45-17.99-66.66-21.15-15-2.04-30.15-2.48-45.25-1.23-1.85.15-3.43,1.47-3.43,3.43,0,1.74,1.57,3.59,3.43,3.43h0Z"/>
      <path class="cls-3" d="M804.22,407.17c15.19-11.57,29.99-23.96,45.05-35.49,3.47-2.66,7.98-5.12,8.65-9.87.72-5.15-2.85-9.93-5.6-13.96-5.35-7.86-11.68-15.01-18.36-21.77-7.43-7.53-15.27-14.63-22.78-22.06-3.14-3.11-8,1.74-4.85,4.85,12.58,12.46,26.44,24.1,37.07,38.27,1.37,1.83,2.69,3.69,3.94,5.6,1.19,1.8,2.53,3.68,3.35,5.68.39.96.41,1.6.47,2.5-.01-.19-.09.29-.09.27.03-.14.33-.52-.04.08-.12.19-.22.38-.36.57.22-.3,0,0-.12.11-1.38,1.37-2.44,2.04-4.1,3.31-7.35,5.61-14.58,11.38-21.81,17.15-7.93,6.33-15.91,12.75-23.89,18.83-1.47,1.12-2.25,2.96-1.23,4.69.85,1.45,3.21,2.36,4.69,1.23h0Z"/>
      <path class="cls-3" d="M606.97,321.11c-7.4-6.02-14.54-12.35-21.87-18.45-.9-.75-1.8-1.5-2.71-2.24-.78-.64-1.74-1.27-2.33-2.1.18.25-.15-.57,0,.13-.02-.08.1-.49.01-.29-.13.3.28-.45.11-.21.11-.16.13-.19.42-.39.52-.38,1-.83,1.51-1.23,3.37-2.68,7.1-5.12,10.92-7.2,4.46-2.44,8.96-4.32,13.82-5.81,1.77-.54,2.9-2.4,2.4-4.22s-2.44-2.94-4.22-2.4c-9.87,3.02-18.97,7.89-27.09,14.24-2.32,1.82-4.37,3.63-4.68,6.76-.27,2.77,1.28,5.08,3.32,6.79,4.01,3.37,8.05,6.7,12.03,10.1,4.47,3.82,8.94,7.65,13.51,11.37,1.44,1.17,3.45,1.41,4.85,0,1.21-1.21,1.45-3.68,0-4.85h0Z"/>
      <path class="cls-3" d="M711.41,404.45c3.91,5.52,8.06,10.93,12.93,15.65,4.87,4.71,10.4,8.7,16.05,12.43,1.55,1.02,3.79.31,4.69-1.23.98-1.68.32-3.67-1.23-4.69s-3.02-2.01-4.5-3.05c-.66-.47-1.32-.94-1.98-1.42-.29-.21-.58-.43-.88-.65-.1-.07-1.09-.82-.72-.54-2.3-1.77-4.51-3.67-6.59-5.69-4.63-4.48-8.25-9.17-11.86-14.26-1.07-1.51-3-2.22-4.69-1.23-1.49.87-2.31,3.17-1.23,4.69h0Z"/>
      <path class="cls-3" d="M751.76,455.23c-.18-.14-.36-.27-.54-.41.24.18.19.14-.14-.11-.38-.3-.76-.61-1.14-.91-.8-.65-1.58-1.31-2.36-1.98-1.53-1.32-3.02-2.69-4.46-4.1-1.42-1.4-2.81-2.84-4.11-4.34s-1.99-2.38-3.08-4.11v3.46c3.68-5.65,8.15-10.69,13.28-15.11,3.96-3.41,8.45-6.45,13.27-9.27,2.89-1.69,5.83-3.28,8.82-4.79,2.76-1.39,6.23-3.05,8.63-4.03,3.99-1.63,8.22-3.17,12.46-3.97-1.06.2.56-.03.89-.04.23,0,.45,0,.68,0,.24.01,1.26.18.23-.01.55.1,1.1.21,1.63.38.24.08.48.17.72.25-.86-.3.23.12.4.21,1.51.78,2.18,1.31,3.22,2.24,1.5,1.34,2.85,2.84,4.13,4.39,1.18,1.43,3.63,1.22,4.85,0,1.41-1.41,1.19-3.42,0-4.85-3.88-4.68-8.79-9.19-15.18-9.47-4.39-.19-9.02,1.68-13.07,3.16-6.85,2.5-13.45,5.83-19.79,9.4-5.17,2.91-10.12,6.15-14.75,9.88-6.39,5.14-11.88,11.29-16.35,18.16-.64.99-.62,2.47,0,3.46,4.59,7.3,11.49,13.28,18.3,18.44,1.48,1.12,3.84.23,4.69-1.23,1.03-1.76.25-3.57-1.23-4.69h0Z"/>
      <path class="cls-3" d="M802.41,512.15c3.41,3.68,7.67,6.67,11.67,9.65,3.92,2.92,7.93,5.7,11.8,8.68,1.47,1.13,3.84.23,4.69-1.23,1.04-1.77.24-3.56-1.23-4.69-3.79-2.92-7.72-5.64-11.55-8.49-1.09-.81-2.18-1.63-3.27-2.47-.19-.15-.16-.13.08.07-.16-.12-.32-.25-.48-.37-.24-.18-.47-.37-.71-.56-.49-.39-.99-.78-1.47-1.18-1.63-1.33-3.26-2.7-4.69-4.25-1.26-1.36-3.58-1.27-4.85,0-1.36,1.36-1.26,3.49,0,4.85h0Z"/>
      <path class="cls-3" d="M830.37,530.83c16.15-7.11,31.14-17.57,44.07-29.51,3.51-3.24,6.86-6.65,9.98-10.26,1.21-1.4,1.38-3.47,0-4.85-1.24-1.24-3.64-1.41-4.85,0-11.22,13.01-25.23,23.77-40.09,32.3-4.08,2.34-8.27,4.5-12.58,6.4-1.7.75-2.09,3.23-1.23,4.69,1.02,1.75,2.99,1.98,4.69,1.23h0Z"/>
      <path class="cls-3" d="M850.55,447.44c5.4,5.07,10.85,10.1,16.04,15.39,2.69,2.74,5.32,5.55,7.81,8.48,2.31,2.72,4.17,5.06,6.1,8.15.21.33.45.97.2.23.1.31.21.62.29.94.03.13.05.26.08.4.11.47-.03-.83.01.07.02.35.04.71.04,1.06,0,.21-.02.42-.03.63-.02.54.1-.5,0,.05-.07.43-.17.86-.3,1.28-.12.39-.58,1.23-.88,1.57-1.24,1.38-1.36,3.49,0,4.85,1.26,1.26,3.61,1.39,4.85,0,2.78-3.11,3.72-7.28,2.92-11.34-.68-3.48-3.48-6.54-5.6-9.26-5.11-6.56-11.02-12.48-17.01-18.23-3.2-3.07-6.46-6.09-9.69-9.13-1.35-1.27-3.51-1.34-4.85,0s-1.36,3.58,0,4.85h0Z"/>
      <g>
        <path class="cls-5" d="M351.64,581.82c-6.4-.09-17.12-2.14-18.87,1.3-1.74,3.44,3.64,22.41,3.64,22.41,0,0-19.65,3.69-18.82,5.69s12.28,16.72,12.28,16.72c0,0,4.74,24.7,15.35,28.77,10.6,4.07,17.56,5.98,29.32-1.73-10.47,19.72-8.63,40.29,1.76,43.99,10.39,3.7,14.87-6.1,23.41-21.5,8.53-15.4,37.48-27.12,56.16-24.8,18.68,2.33,29.96,5.12,37.3,16.59s12.23,16.94,20.95,12.97c8.73-3.96,8-20.1-3.58-36.03-11.58-15.93-16.41-16.29-16.41-16.29l1.12-11.63s13.76,4.71,22.99,14.46c9.23,9.75,20.29,5.47,22.47-1.44s-.19-21.93-30.91-47.5c9.56-29.98,8.14-29.7,5.1-42.23-3.04-12.54-14.81-20.58-21.75-17.1-6.93,3.48,2.1,13.92,5.23,23.76,3.13,9.84-4.14,26.37-4.14,26.37,0,0-26.71-6.97-51.41-4.36-24.7,2.61-41.05,15.15-41.05,15.15,0,0-9.96-12.38-25.18-13.39-15.22-1.01-24.97,9.8-24.97,9.8Z"/>
        <path class="cls-3" d="M332.3,625.52c-1.85-2.25-3.52-4.5-5.2-6.97-.86-1.26-1.69-2.55-2.48-3.84-.44-.71-.86-1.42-1.28-2.14-.27-.46-.77-1.51-.97-1.68.06.19.04.1-.07-.26l-.16,1.37c-.7.6-.85.79-.47.57.21-.11.18-.1-.11.05.65-.2,1.33-.34,1.99-.51,1.51-.38,3.01-.78,4.51-1.19,3.02-.82,6.04-1.67,9.08-2.42,1.8-.45,2.88-2.47,2.4-4.22-.5-1.83-2.42-2.84-4.22-2.4-3.52.87-7.01,1.87-10.52,2.81-3.55.95-9.23,1.48-9.26,6.34-.01,2.05,1.21,3.84,2.21,5.54.92,1.55,1.87,3.08,2.87,4.59,2.12,3.19,4.42,6.26,6.85,9.22,1.18,1.43,3.63,1.22,4.85,0,1.42-1.42,1.18-3.42,0-4.85h0Z"/>
        <path class="cls-3" d="M339.38,603.19c-.75-3.15-1.61-6.29-2.2-9.48-.3-1.64-.42-2.5-.54-4.28-.05-.8-.08-1.61-.11-2.42-.01-.31-.02-.63-.02-.94,0-.22.17-1.03-.02-.26.06-.26.36-.81.02-.21-.25.28-.29.34-.12.15.17-.16.13-.13-.1.09.33-.16.32-.17-.01-.02l.31-.11c.33-.09.66-.18.98-.27.42-.08.43-.09.02-.02.16-.01.31-.02.47-.01.39,0,.78,0,1.17-.02.87-.01,1.73-.03,2.6-.05,3.24-.07,6.5-.15,9.73.09,1.79.13,3.51-1.67,3.43-3.43-.09-1.97-1.51-3.29-3.43-3.43-3.77-.27-7.56-.13-11.34-.05-3.89.07-8.52.46-10.1,4.7-.57,1.52-.47,3.18-.41,4.77.08,2.04.29,4.05.6,6.07.57,3.71,1.59,7.32,2.45,10.97.41,1.75,2.5,2.95,4.22,2.4,1.82-.59,2.84-2.35,2.4-4.22h0Z"/>
        <path class="cls-3" d="M354.07,584.24c6.23-5.24,14.37-8.46,22.46-8.4,2.16.02,3.84.18,5.81.62.88.2,1.76.43,2.62.7.46.15.92.3,1.37.47.23.08.45.17.68.26.11.04.51.21.18.07,1.77.77,3.47,1.71,5.07,2.79,1.5,1.02,2.58,1.91,4.02,3.37.76.77,1.48,1.57,2.14,2.42-.23-.3.43.6.53.74.34.49.67.99.98,1.5,1.22,2.02,1.77,3.29,2.4,5.4.53,1.78,2.41,2.9,4.22,2.4s2.93-2.44,2.4-4.22c-2.57-8.6-8.97-15.77-16.99-19.73-8.69-4.28-18.78-4.72-27.94-1.67-5.47,1.82-10.41,4.7-14.81,8.4-1.42,1.19-1.23,3.62,0,4.85,1.41,1.41,3.43,1.2,4.85,0h0Z"/>
        <path class="cls-3" d="M326.36,628.28c1,9.95,4.66,19.83,11.79,27.03,6.96,7.02,16.75,10.34,26.54,8.85,5.16-.78,10.04-3.16,13.75-6.86,3.13-3.12-1.72-7.98-4.85-4.85-2.62,2.62-5.53,4.07-9.35,4.85-.46.09-.91.18-1.37.24.54-.08-.04,0-.13,0-.23.02-.47.05-.7.06-1.05.08-2.11.1-3.17.05-.47-.02-.94-.05-1.41-.1-.23-.02-.47-.05-.7-.08.53.07-.06-.01-.14-.03-1.05-.18-2.09-.4-3.12-.69-3.57-1.01-6.89-2.92-9.69-5.54-3.06-2.87-5.16-5.94-7.01-9.83-1.79-3.76-3.17-9.09-3.58-13.14-.18-1.84-1.44-3.43-3.43-3.43-1.71,0-3.62,1.58-3.43,3.43h0Z"/>
        <path class="cls-3" d="M399.58,602.91c-4.69,4.25-8.75,9.25-11.94,14.72-3.41,5.85-6.22,12.49-5.16,19.39.92,5.96,5.71,11.34,11.84,11.98s11.06-4.39,14.34-9.03c1.71-2.42,3.1-4.89,4.95-6.99,1.08-1.22,2.24-2.38,3.5-3.4.79-.64,2.63-1.75,3.34-2.02,1.73-.66,2.92-2.31,2.4-4.22-.45-1.66-2.48-3.06-4.22-2.4-5.43,2.08-9.57,6.35-12.89,11.01-1.28,1.79-2.68,4.26-3.81,5.64-1.59,1.93-2.93,3.42-5.07,4.32.17-.07.47-.13-.12.02-.27.07-.53.15-.8.21-.57.13.77.02-.24.03-.22,0-.45,0-.67,0-1.03.02.27.09-.3-.02-.28-.06-.56-.15-.84-.21-.57-.14-.33-.1-.14-.02-.37-.15-.72-.36-1.06-.58-.1-.06-.7-.49-.29-.17-.18-.14-.36-.3-.53-.46-.26-.24-.49-.5-.74-.76-.04-.04-.41-.49-.13-.14-.74-.96-1.2-1.93-1.44-2.69-1.6-4.99.92-10.49,3.39-14.95,3.03-5.48,6.84-10.22,11.49-14.43,1.37-1.24,1.26-3.59,0-4.85-1.37-1.37-3.47-1.25-4.85,0h0Z"/>
        <path class="cls-3" d="M373.63,653.12c-3.08,5.6-5.56,11.55-7.31,17.69-1.71,6.01-2.74,12.45-1.29,18.63,1.26,5.38,4.8,10.47,9.97,12.71,5.5,2.38,11.2.94,15.55-3.01,3.79-3.43,6.09-8.25,8.16-12.83,2.14-4.75,4.66-8.52,8.21-12.06,7.12-7.11,16.59-11.78,26.22-14.65,12.23-3.65,25.8-4.7,38.06-2.04,1.81.39,3.71-.54,4.22-2.4.47-1.71-.58-3.83-2.4-4.22-11.37-2.47-23.27-2.09-34.63.26-10.32,2.13-20.63,6.12-29.24,12.27-4.28,3.06-8.1,6.59-11.3,10.78-1.51,1.97-2.86,4.05-3.98,6.27s-2,4.43-3.11,6.59c-.5.98-1.03,1.95-1.61,2.89-.67,1.1-1.28,1.97-1.88,2.67-.71.83-1.5,1.65-2.37,2.31.39-.3-.08.04-.14.08-.29.18-.58.38-.88.55-.2.11-.41.22-.61.33-.58.31.11.02-.49.21-.56.18-1.12.35-1.7.42.6-.08-.13-.02-.27-.02-.28,0-.56-.01-.84-.01-.11,0-.67-.08-.08,0-.28-.04-.55-.1-.82-.17s-.53-.16-.8-.24c-.89-.24.4.25-.43-.16-.51-.26-1.01-.53-1.49-.85-.19-.13-.39-.26-.57-.4.4.32-.16-.16-.25-.24-1.05-.94-1.49-1.46-2.11-2.46-3.14-5.01-2.5-11.26-1.17-16.79,1.57-6.51,4.07-12.76,7.3-18.63.89-1.62.4-3.74-1.23-4.69-1.57-.92-3.8-.4-4.69,1.23h0Z"/>
        <path class="cls-3" d="M471.64,657.65c1.58.52,3.15,1.05,4.7,1.65.38.15.77.3,1.14.46-.64-.27.46.21.59.27.75.35,1.5.72,2.22,1.13s1.38.81,2.04,1.25c1.03.7,1.02.69,1.83,1.39,1.36,1.17,2.84,2.73,3.82,3.96,5.16,6.55,7.34,16.28,16.15,19.06,4.23,1.33,8.85.5,12.43-2.09,3.82-2.76,5.81-6.53,6.33-11.17.45-4.08-.42-8.35-1.62-12.24-1.25-4.06-2.97-7.98-4.85-11.78-4.63-9.34-12.43-16.31-20.56-22.58-1.47-1.13-3.84-.22-4.69,1.23-1.04,1.77-.24,3.56,1.23,4.69,6.16,4.75,12.54,10.4,16.55,17.22.95,1.61,1.76,3.3,2.56,4.99s1.32,2.9,1.99,4.67,1.32,3.74,1.8,5.67c.22.88.41,1.77.57,2.66.04.25.09.5.12.75-.02-.16-.05-.5.02.21.05.49.09.98.11,1.48.04.84.03,1.67-.04,2.51-.02.23-.04.47-.07.69.02-.17.11-.55-.04.11-.1.44-.19.88-.32,1.32-.06.21-.35.98-.29.85.14-.3-.12.2-.12.21-.12.2-.22.4-.35.6s-.25.39-.39.58c.05-.06.24-.3,0,0-.35.41-.72.79-1.12,1.15-2.26,2.03-4.86,2.56-7.79,1.54-.53-.19-.36-.1-.75-.33s-.76-.42-1.12-.67c-.49-.34.27.25-.17-.14-.13-.12-.26-.24-.39-.37-.43-.44-.83-.93-1.22-1.4-.43-.53-.74-.95-1.23-1.7-.46-.69-.89-1.4-1.3-2.12-2.04-3.59-3.96-7.16-6.55-10.39s-5.61-5.78-9.11-7.73c-3.24-1.81-6.79-3.04-10.3-4.2-1.76-.58-3.75.67-4.22,2.4-.51,1.87.63,3.64,2.4,4.22h0Z"/>
        <path class="cls-3" d="M496.72,628.83c.03-1.13.12-2.25.27-3.37l-.12.91c.34-2.44.94-4.83,1.7-7.17.55-1.71-.65-3.82-2.4-4.22-1.88-.43-3.63.57-4.22,2.4-1.2,3.69-2,7.56-2.1,11.45-.05,1.8,1.61,3.51,3.43,3.43,1.9-.08,3.38-1.51,3.43-3.43h0Z"/>
        <path class="cls-3" d="M404.96,586.61c6.29-4.52,13.44-7.3,20.86-9.37,7.78-2.17,15.75-3.65,23.81-4.25,8.03-.6,16.18-.43,24.14.82,3.97.62,7.91,1.48,11.77,2.6,1.63.47,3.24.99,4.84,1.56,1.43.51,3.39,1.27,4.47,1.73,12.69,5.43,23.88,13.63,32.3,24.59,1.76,2.29,3.82,5.44,5.48,8.19,1.85,3.06,3.5,6.01,4.34,9.41.42,1.69.55,2.91.68,4.44.06.76.1,1.52.06,2.28,0,.16-.08.97-.04.72.05-.36-.04.18-.04.2-.06.27-.12.54-.2.81-.05.17-.28.85-.23.72.05-.12-.28.54-.38.71-.36.62-.62,1.02-1.04,1.46-.2.21-.41.41-.63.6-.15.13-.68.52-.25.21-.67.47-1.36.92-2.11,1.24.3-.13-.49.16-.61.2-.37.11-.76.22-1.15.27-.35.05-1.63.05-2.34-.05.41.06-.44-.11-.55-.14-.4-.1-.79-.22-1.18-.36s-.05-.01.02.02c-.16-.07-.31-.15-.46-.22-.4-.2-.79-.43-1.17-.67-.28-.18-.55-.37-.82-.57-.32-.23-.02-.01.04.03-.13-.1-.26-.21-.38-.32-.67-.58-1.33-1.17-1.99-1.76-1.3-1.18-2.57-2.39-3.86-3.59-5.08-4.75-10.39-9.41-17.04-11.8-1.56-.56-3.16-.94-4.79-1.19-1.83-.27-3.69.46-4.22,2.4-.44,1.62.55,3.95,2.4,4.22,6.97,1.03,12,4.96,17.11,9.65,5.34,4.9,10.57,11.39,18.5,11.23,7.88-.16,14.25-6.72,14.3-14.55.02-3.6-.6-7.48-1.9-10.84-1.45-3.76-3.45-7.24-5.62-10.62-8.08-12.65-19.27-22.92-32.56-29.91-14.57-7.66-31.01-11.08-47.43-10.92-8.85.09-17.71,1.19-26.34,3.12-8.27,1.85-16.56,4.36-24.01,8.46-1.81.99-3.55,2.1-5.22,3.3-1.5,1.08-2.23,2.99-1.23,4.69.87,1.48,3.18,2.32,4.69,1.23h0Z"/>
        <path class="cls-3" d="M497.21,576.35c3.56-7.04,5.7-15.01,5.29-22.94-.21-4.04-1.05-7.97-2.64-11.69-.74-1.74-1.64-3.38-2.71-4.95-.51-.75-1.03-1.49-1.51-2.25-.26-.41-.51-.82-.74-1.25s-.42-.81-.49-1.02c-.15-.42-.31-.88-.35-1.33.06.52.07-.9.02-.56-.02.14.16-.6.24-.8-.24.61.24-.34.37-.52-.37.5.24-.19.38-.33.27-.26-.04,0-.09.04.16-.13.34-.24.52-.35.13-.08.27-.16.41-.24.08-.04.67-.33.31-.17-.33.14.16-.05.19-.06.26-.07.52-.15.78-.23.16-.04.32-.07.47-.1-.14.03-.64.03.05,0,.32-.02.64-.03.97-.02.21,0,.43.02.64.05-.07,0-.51-.09-.12,0,.47.13.95.24,1.4.42.56.22-.34-.18.2.1.16.08.33.17.49.26.38.21.74.44,1.1.69.31.22.12.07.05.02.2.15.39.32.58.48.38.33.74.68,1.09,1.05,2.28,2.38,4.24,5.89,5.52,9.15,1.47,3.75,2.47,7.84,2.85,11.69.99,9.91-1.01,19.72-4.24,29.06-.61,1.75.69,3.75,2.4,4.22,1.89.52,3.61-.64,4.22-2.4,3.2-9.24,5.25-19.12,4.64-28.94-.56-9.03-3.19-18.32-8.78-25.56-2.52-3.27-5.98-6.24-10.18-6.95-3.96-.68-8.44.55-11.06,3.72-3.27,3.93-2.51,8.87.01,12.98,1.06,1.73,2.32,3.33,3.29,5.12.95,1.75,1.44,3.06,1.98,5.08,2.18,8.17.36,17.47-3.48,25.06-.84,1.65-.44,3.72,1.23,4.69,1.53.89,3.86.43,4.69-1.23h0Z"/>
        <path class="cls-3" d="M345.4,624.88c1.85,0,3.43-1.58,3.43-3.43s-1.57-3.43-3.43-3.43-3.43,1.58-3.43,3.43,1.57,3.43,3.43,3.43h0Z"/>
        <path class="cls-3" d="M356.8,606.94c1.85,0,3.43-1.58,3.43-3.43s-1.57-3.43-3.43-3.43-3.43,1.58-3.43,3.43,1.57,3.43,3.43,3.43h0Z"/>
        <path class="cls-3" d="M358.29,621.73c1.85,0,3.43-1.58,3.43-3.43s-1.57-3.43-3.43-3.43-3.43,1.58-3.43,3.43,1.57,3.43,3.43,3.43h0Z"/>
        <path class="cls-3" d="M365.37,625.22c-.3-.95-.51-1.93-.65-2.92l.12.91c-.14-1.07-.18-2.14-.12-3.22.04-.85-.41-1.84-1-2.43s-1.57-1.04-2.43-1-1.81.33-2.43,1-.96,1.48-1,2.43c-.12,2.36.19,4.79.89,7.05.26.84.81,1.6,1.58,2.05s1.82.61,2.64.35,1.63-.78,2.05-1.58c.42-.8.62-1.75.35-2.64h0Z"/>
        <path class="cls-3" d="M366.71,613.29c-1.92.74-3.72,1.73-5.6,2.53l.82-.35c-.22.09-.44.18-.67.27-.45.11-.84.31-1.17.61-.37.24-.67.56-.88.96-.43.74-.61,1.82-.35,2.64s.78,1.63,1.58,2.05c.77.41,1.8.67,2.64.35,1.92-.74,3.72-1.73,5.6-2.53l-.82.35c.22-.09.44-.18.67-.27.45-.11.84-.31,1.17-.61.37-.24.67-.56.88-.96.43-.74.61-1.82.35-2.64-.27-.83-.78-1.63-1.58-2.05s-1.8-.67-2.64-.35h0Z"/>
      </g>
    </g>
  </g>
</svg>